<svg width="2951" height="706" viewBox="0 0 2951 706" fill="none" xmlns="http://www.w3.org/2000/svg">
<path fill-rule="evenodd" clip-rule="evenodd" d="M867.123 493.824C877.288 493.824 886.201 492.889 893.752 491.067C901.28 489.233 908.482 486.704 915.347 483.456V439.49H884.912C882.01 439.49 879.685 438.687 878.035 437.104C876.349 435.438 875.494 433.472 875.494 431.135V405.676H956.369V503.521C950.167 508.016 943.759 511.852 937.123 515.172C930.451 518.432 923.345 521.213 915.769 523.275C908.193 525.384 900.052 527.002 891.488 528.045C882.889 529.1 873.567 529.616 863.546 529.616C845.853 529.616 829.582 526.571 814.671 520.446C799.749 514.285 786.862 505.787 775.95 494.807C765.122 483.947 756.655 470.858 750.537 455.707C744.419 440.592 741.396 423.991 741.396 406.035C741.396 387.84 744.382 371.131 750.308 356.004C756.234 340.805 764.653 327.764 775.613 316.856C786.488 305.925 799.749 297.45 815.322 291.433C830.895 285.392 848.419 282.396 867.737 282.396C887.586 282.396 904.761 285.344 919.298 291.206C933.811 297.055 946.072 304.666 956.165 314.028L943.061 334.417C940.519 338.54 937.123 340.602 932.799 340.602C930.077 340.602 927.391 339.739 924.609 337.929C920.996 335.795 917.323 333.721 913.601 331.612C909.843 329.454 905.7 327.632 901.087 326.062C896.619 324.492 891.488 323.209 885.852 322.202C880.203 321.196 873.687 320.752 866.232 320.752C854.236 320.752 843.408 322.718 833.701 326.745C824.03 330.725 815.791 336.454 808.975 343.97C802.109 351.437 796.834 360.379 793.113 370.867C789.451 381.355 787.608 393.066 787.608 406.035C787.608 419.964 789.596 432.394 793.498 443.301C797.4 454.077 802.904 463.319 809.962 470.762C817.068 478.23 825.439 483.947 835.158 487.903C844.914 491.858 855.597 493.824 867.123 493.824Z" fill="white"/>
<path fill-rule="evenodd" clip-rule="evenodd" d="M994.033 518.873V350.054H1017.85C1022 350.054 1024.89 350.809 1026.55 352.354C1028.2 353.875 1029.31 356.517 1029.86 360.231L1032.3 380.679C1038.33 370.243 1045.4 361.976 1053.46 355.951C1061.59 349.913 1070.71 346.894 1080.77 346.894C1089.1 346.894 1095.97 348.828 1101.52 352.649L1096.21 383.12C1095.86 385.101 1095.17 386.457 1094.11 387.318C1092.96 388.144 1091.54 388.509 1089.65 388.509C1087.99 388.509 1085.74 388.167 1082.94 387.412C1080.04 386.599 1076.29 386.257 1071.58 386.257C1063.16 386.257 1055.94 388.58 1049.89 393.214C1043.84 397.884 1038.79 404.724 1034.6 413.733V518.873H994.033Z" fill="white"/>
<path fill-rule="evenodd" clip-rule="evenodd" d="M1123.08 524.264H1165.15V353.238H1123.08V524.264ZM1171.41 303.365C1171.41 306.937 1170.71 310.27 1169.24 313.4C1167.76 316.483 1165.84 319.194 1163.41 321.572C1160.93 323.877 1158.04 325.741 1154.81 327.151C1151.49 328.525 1147.97 329.218 1144.21 329.218C1140.59 329.218 1137.17 328.525 1133.94 327.151C1130.69 325.741 1127.86 323.877 1125.5 321.572C1123.09 319.194 1121.26 316.483 1119.81 313.4C1118.37 310.27 1117.67 306.937 1117.67 303.365C1117.67 299.686 1118.37 296.257 1119.81 293.103C1121.26 289.818 1123.09 287.035 1125.5 284.681C1127.86 282.352 1130.69 280.476 1133.94 279.078C1137.17 277.681 1140.59 277.047 1144.21 277.047C1147.97 277.047 1151.49 277.681 1154.81 279.078C1158.04 280.476 1160.93 282.352 1163.41 284.681C1165.84 287.035 1167.76 289.818 1169.24 293.103C1170.71 296.257 1171.41 299.686 1171.41 303.365V303.365Z" fill="white"/>
<path fill-rule="evenodd" clip-rule="evenodd" d="M1269.62 492.054C1278.08 492.054 1285.29 490.331 1291.21 486.778C1297.17 483.295 1302.77 478.314 1308.08 471.762V396.025C1303.45 390.43 1298.43 386.44 1292.95 384.15C1287.51 381.825 1281.62 380.691 1275.3 380.691C1269.16 380.691 1263.61 381.825 1258.62 384.15C1253.59 386.44 1249.38 389.922 1245.86 394.597C1242.39 399.33 1239.77 405.209 1237.86 412.422C1236.04 419.61 1235.05 428.074 1235.05 437.872C1235.05 447.764 1235.87 456.11 1237.45 462.956C1239.07 469.897 1241.35 475.434 1244.29 479.766C1247.25 484.122 1250.9 487.262 1255.2 489.174C1259.51 491.063 1264.31 492.054 1269.62 492.054V492.054ZM1323.89 521.824C1318.58 521.824 1315.16 519.404 1313.49 514.399L1310.12 498.109C1306.6 502.028 1302.95 505.664 1299.07 508.827C1295.23 511.979 1291.07 514.729 1286.68 517.031C1282.19 519.404 1277.34 521.139 1272.26 522.449C1267.18 523.677 1261.63 524.267 1255.66 524.267C1246.42 524.267 1237.94 522.402 1230.22 518.578C1222.52 514.729 1215.87 509.099 1210.32 501.839C1204.77 494.508 1200.47 485.513 1197.47 474.701C1194.41 463.959 1192.9 451.67 1192.9 437.835C1192.9 425.299 1194.6 413.672 1198.02 402.953C1201.44 392.164 1206.32 382.803 1212.72 374.941C1219.05 366.985 1226.78 360.788 1235.65 356.338C1244.57 351.958 1254.57 349.668 1265.74 349.668C1275.22 349.668 1283.3 351.215 1289.97 354.189C1296.71 357.258 1302.72 361.272 1308.04 366.324V277.047H1348.75V521.824H1323.89Z" fill="white"/>
<path fill-rule="evenodd" clip-rule="evenodd" d="M1646.56 403.269C1646.56 390.001 1644.79 378.075 1641.17 367.54C1637.66 357.041 1632.55 348.111 1625.93 340.788C1619.37 333.489 1611.38 327.868 1601.93 324.032C1592.47 320.125 1581.87 318.147 1570.01 318.147H1522.95V488.415H1570.01C1581.87 488.415 1592.47 486.461 1601.93 482.578C1611.38 478.647 1619.37 473.025 1625.93 465.726C1632.55 458.487 1637.66 449.498 1641.17 438.974C1644.79 428.451 1646.56 416.537 1646.56 403.269M1692.63 403.279C1692.63 421.018 1689.65 437.295 1683.79 452.133C1677.88 466.947 1669.54 479.76 1658.87 490.427C1648.14 501.178 1635.23 509.46 1620.13 515.357C1605.03 521.266 1588.35 524.238 1570.07 524.238H1477.65V282.393H1570.07C1588.35 282.393 1605.03 285.365 1620.13 291.31C1635.23 297.303 1648.14 305.597 1658.87 316.24C1669.54 326.895 1677.88 339.648 1683.79 354.426C1689.65 369.288 1692.63 385.553 1692.63 403.279" fill="white"/>
<path fill-rule="evenodd" clip-rule="evenodd" d="M1783.63 569.135C1782.43 572.035 1780.84 574.197 1778.91 575.706C1777.04 577.168 1774.09 577.976 1770.17 577.976H1739.95L1771.46 509.746L1703.39 352.253H1738.8C1742.11 352.253 1744.59 353.002 1746.33 354.547C1748.12 356.127 1749.41 357.874 1750.28 359.894L1786.26 448.075C1787.44 450.986 1788.46 453.981 1789.37 457.011C1790.23 460.148 1791.03 463.237 1791.63 466.374C1792.55 463.095 1793.46 460.029 1794.55 457.011C1795.58 454.064 1796.63 451.01 1797.9 447.921L1831.71 359.894C1832.55 357.66 1834.02 355.878 1836.09 354.369C1838.07 352.978 1840.36 352.253 1842.84 352.253H1875.37L1783.63 569.135Z" fill="white"/>
<path fill-rule="evenodd" clip-rule="evenodd" d="M1891.52 524.233V354.891H1916.91C1922.34 354.891 1925.92 357.339 1927.51 362.283L1930.44 375.671C1933.88 372.194 1937.55 368.93 1941.42 366.139C1945.3 363.229 1949.38 360.804 1953.71 358.652C1958.05 356.594 1962.62 354.997 1967.57 353.921C1972.51 352.762 1977.93 352.253 1983.76 352.253C1993.19 352.253 2001.53 353.803 2008.84 356.937C2016.13 360.083 2022.21 364.471 2027.11 370.136C2031.97 375.86 2035.68 382.602 2038.21 390.479C2040.73 398.32 2042 406.978 2042 416.475V524.233H2000.44V416.475C2000.44 406.103 1997.99 398.084 1993.1 392.419C1988.25 386.765 1980.89 383.927 1971.15 383.927C1963.96 383.927 1957.19 385.535 1950.96 388.681C1944.66 391.91 1938.73 396.262 1933.07 401.762V524.233H1891.52Z" fill="white"/>
<path fill-rule="evenodd" clip-rule="evenodd" d="M2130.28 495.831C2134.4 495.831 2138.24 495.484 2141.71 494.705C2145.18 493.915 2148.48 492.765 2151.58 491.196C2154.7 489.699 2157.72 487.782 2160.6 485.567C2163.48 483.291 2166.4 480.668 2169.28 477.565V448.879C2157.53 448.879 2147.74 449.61 2139.83 451.155C2131.97 452.652 2125.62 454.568 2120.81 456.976C2116.01 459.311 2112.63 462.054 2110.61 465.204C2108.6 468.343 2107.6 471.756 2107.6 475.433C2107.6 482.752 2109.68 487.998 2113.87 491.148C2118.04 494.262 2123.53 495.831 2130.28 495.831V495.831ZM2208.69 521.58H2190.51C2186.65 521.58 2183.72 521.005 2181.53 519.831C2179.33 518.633 2177.74 516.274 2176.59 512.716L2173.02 500.511C2168.77 504.416 2164.65 507.877 2160.54 510.776C2156.47 513.771 2152.22 516.202 2147.88 518.286C2143.51 520.25 2138.86 521.724 2134.02 522.73C2129.08 523.736 2123.64 524.251 2117.65 524.251C2110.56 524.251 2104.02 523.269 2098.08 521.304C2092.08 519.316 2086.88 516.442 2082.58 512.513C2078.32 508.572 2074.94 503.733 2072.56 497.912C2070.14 492.103 2068.95 485.347 2068.95 477.61C2068.95 471.166 2070.64 464.734 2073.93 458.374C2077.31 452.109 2082.76 446.396 2090.55 441.294C2098.3 436.215 2108.54 432.011 2121.44 428.669C2134.3 425.315 2150.18 423.615 2169.23 423.615V413.529C2169.23 401.947 2166.85 393.407 2162.18 387.837C2157.43 382.256 2150.52 379.489 2141.47 379.489C2134.98 379.489 2129.53 380.291 2125.19 381.848C2120.8 383.417 2117.03 385.154 2113.81 387.095C2110.56 389.059 2107.63 390.784 2104.94 392.377C2102.19 393.922 2099.16 394.76 2095.92 394.76C2093.16 394.76 2090.86 393.946 2088.94 392.544C2086.92 391.119 2085.37 389.31 2084.17 387.19L2076.82 373.991C2096.11 355.929 2119.34 346.897 2146.55 346.897C2156.33 346.897 2165.11 348.538 2172.8 351.844C2180.52 355.114 2187.02 359.678 2192.28 365.523C2197.63 371.44 2201.65 378.339 2204.48 386.556C2207.27 394.652 2208.69 403.564 2208.69 413.29V521.58Z" fill="white"/>
<path fill-rule="evenodd" clip-rule="evenodd" d="M2246.19 524.233V354.891H2271.48C2276.88 354.891 2280.36 357.339 2282.04 362.283L2284.77 374.891C2287.73 371.52 2290.93 368.539 2294.27 365.772C2297.56 363.016 2301.06 360.663 2304.79 358.652C2308.56 356.665 2312.55 355.116 2316.87 353.968C2321.24 352.833 2325.94 352.253 2331.07 352.253C2341.92 352.253 2350.9 355.116 2357.9 360.864C2364.9 366.647 2370.12 374.382 2373.55 383.927C2376.28 378.309 2379.61 373.483 2383.68 369.509C2387.7 365.441 2392.11 362.188 2396.9 359.669C2401.75 357.126 2406.83 355.281 2412.28 354.075C2417.68 352.857 2423.13 352.253 2428.63 352.253C2438.14 352.253 2446.63 353.685 2453.96 356.547C2461.34 359.373 2467.56 363.596 2472.61 369.095C2477.69 374.571 2481.5 381.313 2484.13 389.213C2486.76 397.138 2488.04 406.209 2488.04 416.475V524.233H2446.63V416.475C2446.63 405.641 2444.18 397.528 2439.37 392.076C2434.55 386.623 2427.5 383.927 2418.2 383.927C2413.96 383.927 2410.02 384.66 2406.39 386.091C2402.74 387.475 2399.54 389.58 2396.82 392.265C2394.09 394.938 2391.92 398.332 2390.37 402.377C2388.73 406.493 2388.02 411.153 2388.02 416.475V524.233H2346.34V416.475C2346.34 405.133 2344.04 396.842 2339.43 391.685C2334.73 386.493 2327.92 383.927 2318.85 383.927C2312.88 383.927 2307.33 385.405 2302.11 388.315C2296.92 391.224 2292.1 395.222 2287.56 400.26V524.233H2246.19Z" fill="white"/>
<path fill-rule="evenodd" clip-rule="evenodd" d="M2520.38 524.271H2562.42V353.238H2520.38V524.271ZM2568.7 303.339C2568.7 306.958 2568.01 310.291 2566.53 313.349C2565.06 316.503 2563.11 319.214 2560.67 321.52C2558.2 323.897 2555.39 325.713 2552.1 327.098C2548.77 328.496 2545.25 329.189 2541.53 329.189C2537.89 329.189 2534.44 328.496 2531.25 327.098C2528.06 325.713 2525.15 323.897 2522.82 321.52C2520.4 319.214 2518.51 316.503 2517.11 313.349C2515.68 310.291 2514.96 306.958 2514.96 303.339C2514.96 299.708 2515.68 296.255 2517.11 293.03C2518.51 289.841 2520.4 287.058 2522.82 284.704C2525.15 282.375 2528.06 280.5 2531.25 279.102C2534.44 277.704 2537.89 277.047 2541.53 277.047C2545.25 277.047 2548.77 277.704 2552.1 279.102C2555.39 280.5 2558.2 282.375 2560.67 284.704C2563.11 287.058 2565.06 289.841 2566.53 293.03C2568.01 296.255 2568.7 299.708 2568.7 303.339V303.339Z" fill="white"/>
<path fill-rule="evenodd" clip-rule="evenodd" d="M2722.7 391.313C2721.47 392.936 2720.26 394.151 2719.08 395.028C2717.91 395.942 2716.17 396.363 2713.96 396.363C2711.8 396.363 2709.78 395.726 2707.76 394.439C2705.79 393.14 2703.35 391.709 2700.53 390.086C2697.76 388.45 2694.44 387.019 2690.62 385.721C2686.73 384.41 2681.93 383.748 2676.21 383.748C2668.92 383.748 2662.54 385.107 2657.09 387.717C2651.65 390.351 2647.04 394.151 2643.42 399.045C2639.77 403.976 2637.09 409.964 2635.29 416.939C2633.44 423.914 2632.58 431.875 2632.58 440.678C2632.58 449.817 2633.56 458.091 2635.54 465.162C2637.51 472.365 2640.28 478.378 2643.94 483.248C2647.68 488.131 2652.21 491.786 2657.42 494.288C2662.68 496.777 2668.6 498.064 2675.22 498.064C2681.84 498.064 2687.12 497.27 2691.23 495.623C2695.32 493.999 2698.75 492.219 2701.51 490.247C2704.34 488.287 2706.78 486.531 2708.85 484.932C2710.95 483.26 2713.21 482.491 2715.84 482.491C2719.13 482.491 2721.71 483.753 2723.38 486.315L2735.28 501.419C2730.68 506.818 2725.7 511.292 2720.35 514.924C2714.94 518.567 2709.36 521.502 2703.63 523.618C2697.86 525.867 2691.93 527.442 2685.79 528.272C2679.63 529.186 2673.53 529.607 2667.47 529.607C2656.85 529.607 2646.85 527.635 2637.46 523.618C2628.02 519.698 2619.85 513.914 2612.85 506.313C2605.9 498.677 2600.31 489.369 2596.27 478.378C2592.2 467.338 2590.18 454.772 2590.18 440.678C2590.18 428.003 2591.96 416.326 2595.62 405.551C2599.23 394.692 2604.57 385.372 2611.59 377.483C2618.68 369.63 2627.41 363.413 2637.8 358.976C2648.22 354.466 2660.17 352.253 2673.72 352.253C2686.53 352.253 2697.81 354.274 2707.52 358.435C2717.2 362.583 2725.89 368.524 2733.59 376.257L2722.7 391.313Z" fill="white"/>
<path fill-rule="evenodd" clip-rule="evenodd" d="M2863.69 388.411C2862.56 390.213 2861.39 391.51 2860.16 392.231C2858.89 392.988 2857.38 393.312 2855.44 393.312C2853.41 393.312 2851.25 392.748 2848.94 391.667C2846.63 390.549 2844.04 389.252 2840.92 387.871C2837.91 386.465 2834.47 385.216 2830.61 384.075C2826.7 382.994 2822.17 382.429 2816.89 382.429C2808.68 382.429 2802.22 384.159 2797.52 387.618C2792.85 391.09 2790.45 395.595 2790.45 401.217C2790.45 404.88 2791.57 407.98 2794.07 410.49C2796.43 412.977 2799.68 415.211 2803.68 417.157C2807.64 419.007 2812.17 420.809 2817.21 422.203C2822.21 423.74 2827.4 425.386 2832.73 427.2C2837.95 429.002 2843.14 430.972 2848.24 433.29C2853.23 435.549 2857.71 438.48 2861.76 441.999C2865.72 445.519 2868.93 449.723 2871.33 454.673C2873.78 459.598 2875 465.508 2875 472.451C2875 480.716 2873.41 488.332 2870.39 495.347C2867.42 502.326 2862.98 508.333 2857.09 513.438C2851.25 518.507 2844.04 522.52 2835.46 525.342C2826.88 528.153 2817.03 529.607 2805.95 529.607C2800.02 529.607 2794.16 529.09 2788.52 527.961C2782.81 526.928 2777.39 525.451 2772.15 523.625C2766.92 521.679 2762.06 519.444 2757.68 516.886C2753.33 514.315 2749.41 511.516 2746.02 508.465L2755.58 492.704C2756.82 490.806 2758.25 489.365 2759.94 488.356C2761.64 487.323 2763.77 486.806 2766.36 486.806C2768.91 486.806 2771.36 487.587 2773.61 489.016C2775.97 490.494 2778.66 492.068 2781.67 493.737C2784.74 495.371 2788.27 496.969 2792.38 498.422C2796.43 499.876 2801.61 500.609 2807.98 500.609C2812.88 500.609 2817.08 500.02 2820.66 498.819C2824.2 497.678 2827.12 496.104 2829.42 494.182C2831.74 492.32 2833.38 490.098 2834.47 487.587C2835.55 485.076 2836.07 482.47 2836.07 479.815C2836.07 475.791 2834.84 472.475 2832.44 469.917C2830.04 467.334 2826.83 465.111 2822.87 463.189C2818.86 461.328 2814.29 459.622 2809.2 458.144C2804.07 456.571 2798.88 454.949 2793.51 453.171C2788.23 451.405 2782.95 449.255 2777.91 446.876C2772.77 444.438 2768.19 441.411 2764.24 437.735C2760.28 434.047 2757.09 429.518 2754.69 424.149C2752.19 418.767 2751.01 412.34 2751.01 404.736C2751.01 397.673 2752.42 390.97 2755.23 384.591C2758.01 378.225 2762.16 372.675 2767.63 367.906C2773.05 363.173 2779.84 359.365 2788 356.554C2796.14 353.647 2805.53 352.253 2816.22 352.253C2828.11 352.253 2838.9 354.175 2848.71 358.104C2858.42 362.02 2866.57 367.185 2873.12 373.54L2863.69 388.411Z" fill="white"/>
<path fill-rule="evenodd" clip-rule="evenodd" d="M575.817 362.228C548.98 235.398 410.282 116.814 313 105.82H309.5C301.602 110.826 295.393 116.344 290.092 123.658C346.767 128.9 396.244 166.723 453.086 227.457C497.238 274.677 526.767 350.086 534.013 429.542C536.931 460.986 536.314 493.046 531.843 524.265C577.406 474.454 587.558 417.625 575.817 362.228Z" fill="#F29100"/>
<path fill-rule="evenodd" clip-rule="evenodd" d="M533.501 423.687C536.42 455.553 537.987 490.647 533.501 522.31C481.689 581.364 303.31 607.661 189.8 599.31C172.652 574.642 164.117 547.686 161.897 519.155C306.131 546.414 457.741 502.333 533.501 423.687Z" fill="#EA5B25"/>
<path fill-rule="evenodd" clip-rule="evenodd" d="M423.946 249.946C457.813 303.146 451.015 399.036 413.309 454.358L408.492 453.202C383.222 442.596 357.565 418.033 335.18 386.499C410.774 295.984 368.902 227.23 315.995 213.144C300.203 208.889 283.445 209.533 268.51 215.944C319.304 192.061 386.518 195.172 423.946 249.946Z" fill="#0069B3"/>
<path fill-rule="evenodd" clip-rule="evenodd" d="M274.309 207.062C285.701 202.352 308.101 200.272 326.301 201.665C312.902 213.467 294.035 232.879 280.101 247.866C276.775 235.136 275.173 219.46 273.846 207.268V207.234C274.041 207.165 274.138 207.097 274.309 207.062Z" fill="#A9AA00"/>
<path fill-rule="evenodd" clip-rule="evenodd" d="M163.025 520.451C158.248 460.361 183.688 394.45 220.107 335.573C216.995 307.891 215.917 280.233 216.157 255.544C156.332 310.178 84.464 415.756 75.8561 495.385C71.3666 536.89 84.0809 571.302 124.762 587.753C141.774 593.728 164.797 597.593 191.374 599.502L191.078 599.481C173.767 575.252 165.251 548.475 163.025 520.451Z" fill="#A9AA00"/>
<path fill-rule="evenodd" clip-rule="evenodd" d="M403.3 443.862C391.4 437.912 363.842 414.332 341.716 383.086C315.234 345.759 293.335 298.441 282.224 252.954C278.966 239.823 276.663 226.88 275.374 214.304V214.269C271.699 178.772 276.436 146.699 292.846 124.428C298.192 117.13 305.752 110.793 313.7 105.809C284.103 102.515 257.616 109.123 240.694 128.407H240.61C227.769 142.991 219.773 164.825 218.663 195.162C216.587 210.691 215.035 232.832 214.749 258.162C214.51 282.913 215.584 310.628 218.687 338.355C230.478 443.382 271.901 547.665 385.646 482.611C406.1 468.362 408.051 462.413 417.3 448.762C417.3 448.762 415.2 449.812 403.3 443.862Z" fill="#62B8E8"/>
</svg>
